<?xml version="1.0" standalone="no"?>
<!DOCTYPE svg PUBLIC "-//W3C//DTD SVG 20010904//EN"
 "http://www.w3.org/TR/2001/REC-SVG-20010904/DTD/svg10.dtd">
<svg version="1.0" xmlns="http://www.w3.org/2000/svg"
 width="891.000000pt" height="891.000000pt" viewBox="0 0 891.000000 891.000000"
 preserveAspectRatio="xMidYMid meet">
<metadata>
Created by potrace 1.11, written by Peter Selinger 2001-2013
</metadata>
<g transform="translate(0.000000,891.000000) scale(0.100000,-0.100000)"
fill="#000000" stroke="none">
<path d="M4175 8900 c-113 -17 -162 -97 -95 -154 105 -88 324 -32 297 76 -13
51 -116 91 -202 78z"/>
<path d="M4923 8760 c-48 -11 -83 -37 -83 -63 0 -31 48 -79 102 -102 24 -11
45 -20 47 -22 2 -2 -11 -41 -30 -88 -26 -65 -38 -84 -49 -79 -78 32 -263 45
-355 24 -27 -6 -59 -11 -70 -11 -17 0 -176 49 -445 138 -31 10 -51 25 -65 46
-11 18 -42 43 -69 56 -81 41 -238 28 -360 -30 -55 -25 -131 -91 -151 -130 -18
-33 -20 -100 -4 -116 12 -12 9 -17 -109 -225 l-53 -94 -74 -23 c-89 -27 -177
-82 -237 -146 l-43 -46 -65 5 c-88 7 -261 20 -281 20 -13 0 -15 6 -8 31 17 63
18 89 4 121 -69 165 -416 -96 -433 -324 -5 -73 14 -101 76 -109 34 -5 54 0
105 25 57 28 156 114 179 156 8 15 23 16 116 11 59 -3 116 -8 127 -10 11 -2
46 -4 79 -4 48 -1 56 -3 47 -15 -6 -7 -20 -47 -31 -89 -17 -68 -19 -112 -7
-189 1 -9 -81 -136 -183 -282 -182 -260 -186 -264 -242 -291 -87 -41 -151
-104 -195 -192 -34 -69 -38 -83 -37 -157 0 -98 20 -163 72 -230 99 -131 271
-180 441 -125 20 6 41 16 47 20 6 5 49 7 95 4 70 -4 247 -11 454 -19 l39 -1
26 -75 c14 -41 37 -96 53 -122 33 -57 117 -145 175 -183 23 -15 42 -34 42 -42
0 -24 -57 -189 -86 -245 -14 -29 -42 -79 -63 -110 l-36 -58 -59 0 c-220 0
-390 -171 -373 -374 17 -215 231 -360 461 -313 90 19 198 103 242 188 64 127
42 276 -57 381 l-50 53 33 95 c46 134 149 336 168 331 8 -2 56 -5 105 -7 100
-4 198 14 283 52 l52 23 108 -43 c126 -51 316 -144 421 -207 73 -44 74 -45 96
-111 59 -185 224 -310 410 -311 122 -1 220 38 308 122 36 34 106 137 111 164
2 7 8 32 15 57 12 40 14 86 9 225 -1 42 5 102 27 263 3 20 7 44 10 52 2 8 6
38 10 65 3 28 15 93 27 145 11 52 22 106 24 118 7 34 33 135 36 136 64 27 126
64 158 92 l41 37 122 -27 c67 -16 151 -34 187 -42 158 -35 175 -40 171 -55 -2
-8 -5 -48 -7 -90 -8 -198 98 -352 233 -342 110 9 201 155 201 321 0 125 -36
221 -107 285 -75 68 -156 63 -234 -15 l-50 -50 -225 56 c-124 31 -227 57 -228
59 -1 1 4 27 12 57 20 72 13 206 -13 280 -17 47 -48 103 -88 156 -6 9 4 27 38
63 57 61 120 157 144 219 11 30 37 66 70 97 39 37 53 59 54 80 1 17 2 44 3 60
4 70 -52 181 -128 257 -109 109 -269 154 -360 100 l-31 -18 -255 68 c-140 38
-263 71 -274 73 -10 2 -39 26 -65 53 -44 48 -149 122 -171 122 -14 0 -13 21 3
61 8 19 21 55 31 81 15 42 20 46 44 42 124 -23 238 2 246 53 14 85 -250 186
-401 153z m-757 -309 c93 -32 182 -64 197 -70 l29 -11 -31 -29 c-54 -51 -76
-139 -51 -205 11 -30 14 -29 -145 -51 -22 -3 -62 -10 -90 -15 -27 -5 -72 -12
-98 -15 -27 -4 -58 -8 -70 -11 -12 -2 -39 -6 -62 -9 -22 -3 -51 -8 -65 -10
-14 -2 -45 -7 -70 -11 -25 -3 -47 -6 -50 -7 -3 -1 -30 10 -60 25 -48 23 -162
52 -187 47 -4 -1 -22 -1 -40 0 l-31 1 68 118 c52 89 73 116 87 114 10 -2 52
-4 93 -4 132 -2 277 57 351 140 21 25 39 49 39 53 0 14 10 12 186 -50z m1343
-395 l213 -63 3 -74 c1 -61 8 -85 34 -137 57 -113 193 -222 296 -239 19 -3 37
-9 40 -12 7 -13 -71 -126 -134 -194 l-63 -67 -41 28 c-103 70 -235 106 -384
107 -76 0 -83 2 -93 24 -6 12 -47 111 -91 220 -44 108 -89 215 -100 238 -23
51 -24 62 -4 69 22 9 56 88 57 134 0 49 -26 53 267 -34z m-1090 -60 c42 -39
150 -93 236 -118 102 -29 312 -32 385 -5 25 9 48 13 51 9 8 -8 219 -485 219
-494 0 -4 -21 -17 -47 -29 -101 -49 -193 -172 -223 -299 -20 -82 -16 -195 8
-257 13 -36 16 -53 8 -56 -6 -3 -145 -62 -309 -131 -164 -69 -300 -126 -302
-126 -2 0 -17 26 -35 57 -69 121 -192 220 -335 269 -68 23 -97 27 -190 27 -75
1 -129 -5 -170 -17 -33 -9 -66 -18 -74 -19 -13 -2 -28 29 -152 308 -13 28 -38
83 -56 123 -18 40 -33 78 -33 85 0 7 30 25 67 42 122 54 213 166 256 312 16
52 17 175 2 219 -6 19 -2 22 38 28 24 4 55 9 68 11 23 4 60 9 137 21 20 3 75
12 122 19 47 8 108 17 135 20 28 4 66 10 85 14 66 13 83 11 109 -13z m-1494
-687 c42 -19 68 -23 160 -23 61 -1 128 1 150 4 l39 5 123 -279 124 -279 -23
-15 c-88 -59 -187 -211 -210 -322 l-12 -60 -130 6 c-72 3 -153 7 -181 9 -27 2
-67 4 -87 4 l-37 1 19 33 c54 92 61 229 17 329 -49 111 -170 201 -286 215 -28
3 -51 9 -51 12 0 3 45 69 100 146 54 77 120 170 146 207 48 68 48 68 69 48 11
-10 43 -29 70 -41z m2267 -693 c77 -67 271 -143 411 -161 26 -3 47 -11 47 -17
0 -70 -66 -394 -97 -475 l-16 -43 -34 30 c-160 141 -434 124 -585 -37 -39 -41
-93 -135 -108 -188 -7 -25 -16 -45 -21 -45 -19 0 -391 198 -436 232 -9 7 -3
22 22 57 70 97 103 202 103 324 0 55 4 71 19 82 10 8 23 15 28 15 6 0 147 58
315 130 168 71 307 129 308 130 2 0 22 -15 44 -34z"/>
<path d="M4245 7635 c-71 -16 -124 -44 -167 -87 -50 -50 -66 -91 -64 -164 7
-221 332 -368 562 -254 195 96 201 313 13 439 -98 66 -234 92 -344 66z"/>
<path d="M2964 8584 c-136 -27 -274 -129 -274 -201 0 -12 12 -31 28 -43 55
-45 225 -9 328 68 83 64 110 128 68 163 -25 20 -88 26 -150 13z"/>
<path d="M5839 8432 c-52 -16 -62 -64 -25 -126 31 -52 65 -82 130 -112 134
-62 222 5 149 114 -62 90 -178 147 -254 124z"/>
<path d="M6598 7465 c-106 -106 30 -405 185 -408 33 -1 45 5 68 31 18 20 29
44 30 65 1 17 2 39 3 47 1 8 -5 38 -12 65 -46 168 -196 278 -274 200z"/>
<path d="M1915 7211 c-45 -20 -127 -105 -156 -163 -50 -98 -53 -204 -8 -241
103 -83 336 162 315 331 -10 85 -66 112 -151 73z"/>
<path d="M2198 5920 c-49 -15 -106 -69 -135 -128 -24 -49 -28 -68 -27 -142 0
-67 5 -95 22 -131 124 -254 433 -156 433 137 0 148 -105 275 -226 273 -22 0
-52 -4 -67 -9z"/>
<path d="M6144 5704 c-152 -74 -190 -360 -68 -503 107 -124 255 -93 332 69 24
48 27 67 26 155 0 79 -5 110 -21 146 -27 60 -79 118 -120 135 -43 18 -110 17
-149 -2z"/>
<path d="M4515 4980 c-140 -43 -215 -139 -211 -271 4 -98 58 -177 159 -231 61
-33 203 -32 265 1 139 75 192 224 127 358 -59 119 -211 183 -340 143z"/>
<path d="M3820 4885 c0 -8 8 -15 18 -16 9 0 50 -1 91 -2 l74 -2 0 -800 0 -800
-61 -2 c-34 -1 -75 -2 -90 -2 -19 -1 -29 -6 -29 -16 0 -13 31 -15 217 -15 186
0 217 2 217 15 0 17 -2 18 -124 16 -82 -1 -93 1 -94 16 -1 23 -1 239 0 274 1
20 22 44 92 104 50 42 92 75 93 73 38 -52 122 -157 230 -288 75 -90 136 -168
136 -173 0 -4 -26 -7 -57 -6 -96 3 -113 0 -113 -16 0 -13 31 -15 215 -15 198
0 215 1 215 18 0 15 -11 17 -99 15 l-100 -2 -68 82 c-37 45 -93 113 -123 152
-30 38 -63 79 -72 90 -9 11 -44 54 -77 95 l-60 75 22 18 c12 10 76 66 142 125
66 58 128 113 139 121 13 12 43 16 105 18 47 1 92 2 99 2 6 1 12 8 12 16 0 13
-30 15 -214 15 -181 0 -215 -2 -220 -15 -6 -17 0 -18 107 -16 37 1 67 -2 66
-6 0 -10 -463 -402 -468 -397 -2 2 -4 287 -4 634 l0 630 -108 0 c-90 0 -109
-3 -109 -15z"/>
<path d="M2850 4061 c-90 -29 -157 -68 -215 -127 -218 -222 -125 -575 180
-685 80 -29 240 -35 317 -13 115 34 243 127 284 206 8 15 16 28 19 28 2 0 3
-46 3 -102 0 -57 0 -111 1 -120 1 -16 13 -18 106 -18 87 0 105 3 105 15 0 17
3 16 -100 18 l-75 2 0 402 c0 356 -2 403 -15 403 -9 0 -16 -8 -17 -17 0 -10
-1 -64 -3 -120 -1 -57 -4 -103 -6 -103 -2 0 -10 12 -18 28 -41 79 -172 174
-286 206 -73 20 -210 19 -280 -3z m273 -32 c122 -32 247 -139 287 -246 72
-189 -12 -383 -205 -478 -82 -41 -137 -53 -232 -50 -321 10 -519 323 -368 581
96 164 318 247 518 193z"/>
<path d="M5370 4066 c-302 -85 -437 -399 -275 -643 128 -193 423 -261 644
-148 71 35 99 61 84 76 -10 10 -16 9 -30 -4 -33 -29 -147 -76 -208 -86 -200
-31 -374 46 -478 212 -17 27 -17 27 10 38 15 6 120 44 233 86 113 41 264 97
337 124 72 27 134 49 136 49 3 0 26 9 51 20 l47 20 -21 41 c-48 92 -151 176
-261 210 -70 22 -199 24 -269 5z m285 -47 c68 -25 149 -89 189 -148 15 -23 27
-44 25 -46 -2 -2 -179 -67 -393 -145 -291 -107 -391 -139 -400 -130 -6 6 -11
45 -10 98 0 77 4 95 32 152 96 199 348 297 557 219z"/>
<path d="M7890 4066 c-116 -33 -243 -126 -290 -214 -10 -20 -20 -32 -20 -27
-1 11 -8 163 -9 213 l-1 32 -104 0 c-94 0 -104 -2 -100 -17 4 -15 18 -18 92
-18 l87 0 1 -655 c0 -360 -2 -661 -4 -668 -3 -8 -21 -12 -51 -11 -91 2 -111 0
-111 -16 0 -13 31 -15 215 -15 184 0 215 2 215 15 0 17 -6 17 -136 16 l-91 -1
0 385 0 385 30 -48 c52 -82 129 -143 232 -182 110 -42 316 -33 393 16 12 8 22
12 22 9 0 -10 86 53 121 87 126 126 157 309 80 473 -52 111 -172 204 -307 239
-72 19 -200 19 -264 2z m262 -36 c51 -14 143 -62 178 -93 46 -40 99 -117 116
-170 11 -31 18 -82 18 -128 0 -263 -285 -452 -569 -378 -116 31 -225 121 -277
229 -28 57 -31 75 -32 156 0 82 2 96 31 155 18 35 54 86 80 112 55 55 166 114
239 127 59 10 158 5 216 -10z"/>
<path d="M403 4055 c0 -12 15 -15 66 -16 36 -1 77 -2 90 -2 23 -2 33 -18 223
-367 23 -41 64 -115 91 -165 27 -49 65 -119 85 -155 57 -108 94 -171 97 -168
4 4 264 478 302 551 l30 57 37 -67 c20 -38 52 -97 72 -133 77 -140 109 -197
142 -260 19 -36 46 -84 60 -108 l25 -43 32 58 c75 136 271 493 304 553 19 36
50 92 68 125 19 33 41 74 50 92 14 27 21 31 57 31 103 0 116 2 116 17 0 13
-26 15 -170 15 -144 0 -170 -2 -170 -15 0 -17 2 -17 83 -15 55 1 67 -5 48 -25
-4 -6 -25 -41 -46 -80 -21 -38 -60 -109 -86 -158 -27 -48 -49 -89 -49 -92 0
-2 -13 -26 -28 -52 -16 -26 -49 -86 -74 -133 -109 -202 -135 -246 -141 -240
-2 3 -22 39 -44 80 -23 41 -116 212 -207 379 -91 166 -166 306 -166 311 0 4
10 7 23 7 129 1 147 3 147 18 0 13 -29 15 -200 15 -184 0 -200 -1 -200 -17 0
-16 10 -18 87 -15 100 3 85 15 154 -114 23 -44 45 -83 49 -87 4 -5 -11 -43
-35 -85 -23 -43 -58 -106 -77 -142 -36 -67 -69 -127 -145 -264 -24 -43 -43
-83 -43 -89 0 -15 -20 15 -62 93 -42 79 -104 193 -131 240 -11 19 -33 60 -50
90 -47 88 -97 179 -144 264 -24 43 -43 82 -43 86 0 4 30 8 68 8 109 0 112 0
106 17 -5 13 -37 15 -203 15 -169 0 -198 -2 -198 -15z"/>
<path d="M6093 4055 c0 -8 5 -15 11 -16 6 0 50 0 99 0 l87 0 0 -308 c0 -341 4
-367 63 -433 29 -33 78 -65 117 -76 42 -13 194 -10 243 5 104 30 200 98 246
173 l21 35 1 -35 c1 -19 2 -39 4 -45 1 -5 3 -36 3 -67 l2 -58 105 0 c87 0 105
3 105 15 0 17 -3 17 -112 16 l-78 -1 0 405 0 405 -114 0 c-92 0 -115 -3 -120
-15 -6 -16 5 -18 127 -15 l67 1 1 -178 c1 -358 2 -338 -27 -403 -59 -132 -226
-223 -392 -214 -103 6 -165 43 -203 121 -23 47 -23 54 -24 373 l0 325 -116 3
c-98 2 -116 0 -116 -13z"/>
<path d="M4160 2455 c0 -499 -1 -516 -20 -535 -11 -11 -30 -22 -42 -25 -13 -3
-135 -5 -270 -3 -318 4 -291 -16 -293 220 -1 95 3 185 7 200 5 14 21 31 36 37
16 6 120 12 257 13 l230 3 0 108 c1 59 -2 108 -5 108 -25 6 -457 3 -498 -3
-103 -16 -197 -82 -245 -172 -21 -39 -22 -53 -22 -271 0 -228 0 -231 26 -285
33 -70 76 -112 147 -147 l57 -28 320 0 320 0 67 33 c79 39 130 93 155 166 15
46 17 104 18 574 l0 522 -122 0 -123 0 0 -515z"/>
<path d="M924 2879 c-140 -10 -230 -67 -283 -179 l-26 -55 0 -375 c0 -371 0
-376 23 -421 32 -65 77 -107 152 -143 l65 -31 483 -3 c389 -2 482 0 483 10 1
13 1 146 0 186 l-1 22 -434 0 c-238 0 -448 3 -466 6 -64 13 -65 23 -65 389 l1
327 27 24 28 24 455 0 c425 0 454 1 455 18 3 74 1 194 -4 199 -8 8 -790 10
-893 2z"/>
<path d="M2297 2584 c-1 -1 -20 -4 -43 -6 -102 -12 -213 -94 -252 -187 -17
-42 -19 -71 -19 -257 0 -146 4 -223 13 -255 16 -54 89 -141 137 -164 94 -44
107 -45 421 -42 301 2 301 2 356 28 71 33 114 70 146 125 35 60 38 81 38 314
-1 202 -1 206 -28 262 -42 89 -121 152 -216 173 -28 7 -546 15 -553 9z m416
-223 c80 -1 90 -3 113 -26 l25 -25 -3 -190 c-3 -166 -5 -192 -21 -207 -16 -16
-43 -18 -260 -21 -133 -2 -257 0 -275 3 -59 11 -66 36 -67 224 -1 173 5 214
33 227 20 10 207 20 302 17 36 -1 105 -2 153 -2z"/>
<path d="M4835 2570 c-110 -28 -182 -92 -216 -193 -15 -43 -17 -85 -15 -267 1
-194 4 -219 22 -261 28 -60 86 -116 154 -148 54 -26 58 -26 323 -29 l267 -3 0
105 0 106 -225 0 c-258 0 -286 6 -303 62 -6 18 -10 103 -10 188 0 167 9 209
49 230 32 18 508 17 540 -1 57 -30 66 -90 21 -140 l-27 -31 -243 0 -243 -1 3
-105 3 -104 247 0 c301 1 340 9 429 89 60 55 90 127 90 222 1 134 -87 241
-231 282 -71 20 -555 19 -635 -1z"/>
<path d="M6133 2578 c-113 -17 -212 -88 -255 -186 -19 -42 -20 -66 -20 -336 0
-160 1 -312 1 -338 l1 -48 120 0 120 0 0 309 c0 172 4 321 10 335 17 45 33 47
340 47 220 0 290 3 291 12 4 68 3 191 -3 200 -8 14 -518 17 -605 5z"/>
<path d="M7086 2575 c-60 -13 -99 -33 -142 -72 -105 -95 -101 -262 7 -365 67
-63 111 -71 380 -73 268 -1 282 -5 295 -71 8 -43 -8 -77 -43 -93 -16 -7 -136
-11 -363 -11 l-340 0 0 -111 0 -110 378 3 377 3 56 26 c122 58 181 148 180
277 0 98 -53 202 -126 249 -81 52 -105 56 -365 59 -135 2 -248 4 -251 4 -4 0
-9 10 -13 22 -12 46 0 48 329 51 l310 2 0 108 c0 66 -3 107 -10 108 -59 7
-619 2 -659 -6z"/>
</g>
</svg>
